<svg width="40" height="37" viewBox="0 0 40 37" fill="none" xmlns="http://www.w3.org/2000/svg">
<g id="Google Display">
<path id="Vector" d="M0.825539 26.6052L14.126 3.625L25.651 10.2624L12.3522 33.2427L0.825539 26.6052Z" fill="#FBBC04"/>
<path id="Vector_2" d="M39.0626 26.5253L25.754 3.53686C24.036 0.295738 20.0103 -0.942552 16.7609 0.771123C13.5116 2.4848 12.2718 6.50026 13.9882 9.74137C14.0635 9.8835 14.1438 10.0224 14.2289 10.1596L27.5375 33.148C29.3325 36.3466 33.3877 37.4885 36.5945 35.6981C39.8012 33.9076 40.946 29.8628 39.151 26.6641C39.1216 26.6118 39.0921 26.5612 39.0626 26.5106V26.5253Z" fill="#4285F4"/>
<path id="Vector_3" d="M6.6543 36.5102C10.3294 36.5102 13.3086 33.5385 13.3086 29.8728C13.3086 26.207 10.3294 23.2354 6.6543 23.2354C2.97923 23.2354 0 26.207 0 29.8728C0 33.5385 2.97923 36.5102 6.6543 36.5102Z" fill="#34A853"/>
</g>
</svg>
