<svg width="48" height="48" viewBox="0 0 48 48" fill="none" xmlns="http://www.w3.org/2000/svg">
<g style="mix-blend-mode:multiply">
<rect width="32" height="32" rx="16" fill="#F1F4FF"/>
</g>
<mask id="mask0_2188_661" style="mask-type:alpha" maskUnits="userSpaceOnUse" x="16" y="16" width="32" height="32">
<rect x="16" y="16" width="32" height="32" fill="#D9D9D9"/>
</mask>
<g mask="url(#mask0_2188_661)">
<path d="M25.3334 45.3337C24.6 45.3337 23.9723 45.0725 23.45 44.5503C22.9278 44.0281 22.6667 43.4003 22.6667 42.667C22.6667 41.9337 22.9278 41.3059 23.45 40.7837C23.9723 40.2614 24.6 40.0003 25.3334 40.0003C26.0667 40.0003 26.6945 40.2614 27.2167 40.7837C27.7389 41.3059 28 41.9337 28 42.667C28 43.4003 27.7389 44.0281 27.2167 44.5503C26.6945 45.0725 26.0667 45.3337 25.3334 45.3337ZM38.6667 45.3337C37.9334 45.3337 37.3056 45.0725 36.7834 44.5503C36.2612 44.0281 36 43.4003 36 42.667C36 41.9337 36.2612 41.3059 36.7834 40.7837C37.3056 40.2614 37.9334 40.0003 38.6667 40.0003C39.4 40.0003 40.0278 40.2614 40.55 40.7837C41.0723 41.3059 41.3334 41.9337 41.3334 42.667C41.3334 43.4003 41.0723 44.0281 40.55 44.5503C40.0278 45.0725 39.4 45.3337 38.6667 45.3337ZM24.2 24.0003L27.4 30.667H36.7334L40.4 24.0003H24.2ZM22.9334 21.3337H42.6C43.1112 21.3337 43.5 21.5614 43.7667 22.017C44.0334 22.4725 44.0445 22.9337 43.8 23.4003L39.0667 31.9337C38.8223 32.3781 38.4945 32.7225 38.0834 32.967C37.6723 33.2114 37.2223 33.3337 36.7334 33.3337H26.8L25.3334 36.0003H41.3334V38.667H25.3334C24.3334 38.667 23.5778 38.2281 23.0667 37.3503C22.5556 36.4725 22.5334 35.6003 23 34.7337L24.8 31.467L20 21.3337H17.3334V18.667H21.6667L22.9334 21.3337Z" fill="#97A7F9"/>
</g>
</svg>
