<svg width="48" height="48" viewBox="0 0 48 48" fill="none" xmlns="http://www.w3.org/2000/svg">
<g style="mix-blend-mode:multiply">
<rect width="32" height="32" rx="16" fill="#C7FF29"/>
</g>
<mask id="mask0_2188_674" style="mask-type:alpha" maskUnits="userSpaceOnUse" x="16" y="16" width="32" height="32">
<rect x="16" y="16" width="32" height="32" fill="#D9D9D9"/>
</mask>
<g mask="url(#mask0_2188_674)">
<path d="M24 30.6L22.6667 31.3333C22.3556 31.5111 22.0222 31.5556 21.6667 31.4667C21.3111 31.3778 21.0444 31.1778 20.8667 30.8667L18.2 26.2C18.0222 25.8889 17.9778 25.5556 18.0667 25.2C18.1556 24.8444 18.3556 24.5778 18.6667 24.4L26.3333 20H28.6667C28.8667 20 29.0278 20.0611 29.15 20.1833C29.2722 20.3056 29.3333 20.4667 29.3333 20.6667V21.3333C29.3333 22.0667 29.5944 22.6944 30.1167 23.2167C30.6389 23.7389 31.2667 24 32 24C32.7333 24 33.3611 23.7389 33.8833 23.2167C34.4056 22.6944 34.6667 22.0667 34.6667 21.3333V20.6667C34.6667 20.4667 34.7278 20.3056 34.85 20.1833C34.9722 20.0611 35.1333 20 35.3333 20H37.6667L45.3333 24.4C45.6444 24.5778 45.8444 24.8444 45.9333 25.2C46.0222 25.5556 45.9778 25.8889 45.8 26.2L43.1333 30.8667C42.9556 31.1778 42.6944 31.3722 42.35 31.45C42.0056 31.5278 41.6667 31.4778 41.3333 31.3L40 30.6333V42.6667C40 43.0444 39.8722 43.3611 39.6167 43.6167C39.3611 43.8722 39.0444 44 38.6667 44H25.3333C24.9556 44 24.6389 43.8722 24.3833 43.6167C24.1278 43.3611 24 43.0444 24 42.6667V30.6ZM26.6667 26.1333V41.3333H37.3333V26.1333L41.4667 28.4L42.8667 26.0667L37.1333 22.7333C36.8 23.8667 36.1722 24.8056 35.25 25.55C34.3278 26.2944 33.2444 26.6667 32 26.6667C30.7556 26.6667 29.6722 26.2944 28.75 25.55C27.8278 24.8056 27.2 23.8667 26.8667 22.7333L21.1333 26.0667L22.5333 28.4L26.6667 26.1333Z" fill="#110B3B"/>
</g>
</svg>
