<svg width="48" height="48" viewBox="0 0 48 48" fill="none" xmlns="http://www.w3.org/2000/svg">
<g style="mix-blend-mode:multiply">
<rect width="32" height="32" rx="16" fill="#F1F4FF"/>
</g>
<mask id="mask0_2188_668" style="mask-type:alpha" maskUnits="userSpaceOnUse" x="16" y="16" width="32" height="32">
<rect x="16" y="16" width="32" height="32" fill="#D9D9D9"/>
</mask>
<g mask="url(#mask0_2188_668)">
<path d="M31.9999 45.3337C28.911 44.5559 26.361 42.7837 24.3499 40.017C22.3388 37.2503 21.3333 34.1781 21.3333 30.8003V22.667L31.9999 18.667L42.6666 22.667V30.2337C42.2444 30.0559 41.811 29.8948 41.3666 29.7503C40.9221 29.6059 40.4666 29.5003 39.9999 29.4337V24.5337L31.9999 21.5337L23.9999 24.5337V30.8003C23.9999 31.8448 24.1388 32.8892 24.4166 33.9337C24.6944 34.9781 25.0833 35.9725 25.5833 36.917C26.0833 37.8614 26.6888 38.7337 27.3999 39.5337C28.111 40.3337 28.8999 41.0003 29.7666 41.5337C30.011 42.2448 30.3333 42.9225 30.7333 43.567C31.1333 44.2114 31.5888 44.7892 32.0999 45.3003C32.0777 45.3003 32.061 45.3059 32.0499 45.317C32.0388 45.3281 32.0221 45.3337 31.9999 45.3337ZM38.6666 45.3337C36.8221 45.3337 35.2499 44.6837 33.9499 43.3837C32.6499 42.0837 31.9999 40.5114 31.9999 38.667C31.9999 36.8225 32.6499 35.2503 33.9499 33.9503C35.2499 32.6503 36.8221 32.0003 38.6666 32.0003C40.511 32.0003 42.0833 32.6503 43.3833 33.9503C44.6833 35.2503 45.3333 36.8225 45.3333 38.667C45.3333 40.5114 44.6833 42.0837 43.3833 43.3837C42.0833 44.6837 40.511 45.3337 38.6666 45.3337ZM37.9999 42.667H39.3333V39.3337H42.6666V38.0003H39.3333V34.667H37.9999V38.0003H34.6666V39.3337H37.9999V42.667Z" fill="#97A7F9"/>
</g>
</svg>
