<svg width="96" height="96" viewBox="0 0 96 96" fill="none" xmlns="http://www.w3.org/2000/svg">
<rect width="96" height="96" rx="48" fill="#2414AE"/>
<path d="M60.4686 48.0016C60.9666 47.2046 61.1285 46.9306 61.4241 46.3983C61.975 45.4052 62.4512 44.4152 62.8372 43.4501C64.5303 39.1945 64.3405 35.7264 62.3018 33.6842C61.2001 32.5822 59.6283 32 57.7577 32C56.2078 32 54.468 32.4327 52.5414 33.1519C51.2435 33.6375 48.5202 35.1723 47.9911 35.5178C47.4557 35.1785 46.9204 34.861 46.3882 34.5621C45.3891 34.008 44.4056 33.5348 43.4407 33.1488C41.5266 32.386 39.7712 32.0031 38.2244 32.0031C36.3538 32.0031 34.7821 32.5853 33.6803 33.6873C31.6417 35.7264 31.4518 39.1945 33.145 43.4501C33.5309 44.4152 34.6109 46.4792 35.5135 48.0016C35.1556 48.5775 34.8537 49.0725 34.558 49.6048C34.558 49.6048 33.5309 51.5879 33.145 52.553C31.4518 56.8086 31.6448 60.2767 33.6803 62.3158C34.7821 63.4178 36.3538 64 38.2244 64C39.7712 64 41.5266 63.614 43.4407 62.8512C44.4056 62.4652 46.7866 61.2355 47.9911 60.4821C48.5513 60.809 50.5619 62.0294 52.5414 62.8512C54.4431 63.642 56.2109 64 57.7577 64C59.6283 64 61.2001 63.4178 62.2987 62.3158C64.3405 60.2767 64.577 56.79 62.8341 52.5499C62.0186 50.5637 60.8515 48.6086 60.4686 48.0016ZM50.6553 45.3367C51.1221 45.8037 51.5734 46.2738 52.0123 46.747C52.4013 47.1641 52.7779 47.5813 53.1452 48.0016C54.58 49.6453 55.8218 51.2859 56.8147 52.8425C57.1415 53.3562 57.4403 53.8636 57.7111 54.3555C57.7671 54.4582 57.8262 54.5641 57.8822 54.6668C59.426 57.5994 59.2112 58.7948 58.9965 59.0096C58.9 59.1061 58.679 59.1559 58.3865 59.1591C56.3572 59.1871 53.3444 57.1511 52.8308 56.8242C52.8277 56.8242 52.8246 56.8211 52.8246 56.8211C53.2354 56.4569 55.3923 54.3835 55.6413 54.122C54.6889 52.5716 53.4564 50.9186 52.0154 49.253C50.1604 51.1707 45.8529 55.2957 41.3274 57.892C38.5543 59.4828 37.0821 59.103 36.9856 59.0096C36.7709 58.7948 36.5561 57.5994 38.0999 54.6668C38.1559 54.5609 38.2119 54.4582 38.2711 54.3524C38.5418 53.8605 38.8406 53.3531 39.1674 52.8394C39.5503 53.2721 39.9393 53.6986 40.3408 54.1189C40.5898 54.3804 40.8419 54.6388 41.0971 54.8941C41.3523 55.1493 41.6107 55.3984 41.869 55.6474C43.419 54.6948 45.0748 53.462 46.7399 52.0237C46.2699 51.5817 40.8761 46.1057 39.1705 43.1606C37.8665 41.0935 36.4285 37.5788 36.9856 36.9904C37.079 36.8907 37.3062 36.8316 37.5988 36.8378C38.464 36.8627 41.3835 37.915 43.1544 39.1727C42.7218 39.5525 40.5929 41.6165 40.3439 41.8718C41.2963 43.4221 42.5288 45.0752 43.9699 46.7438C44.4087 46.2706 44.8631 45.7974 45.33 45.3336C45.7968 44.8666 46.2699 44.4152 46.7399 43.9731C47.1569 43.584 47.574 43.2073 47.9942 42.8431C49.6375 41.4079 51.2777 40.1627 52.8339 39.1727C53.3506 38.8427 54.5582 38.1609 54.6609 38.1049C56.7524 37.0028 57.8978 36.8378 58.3927 36.8378C58.6884 36.8378 58.9062 36.8939 59.0058 36.9904C59.2206 37.2021 59.4353 38.4006 57.8916 41.3332C57.8356 41.4359 57.7795 41.5418 57.7204 41.6476C57.4496 42.1426 57.1508 42.647 56.824 43.1606C56.4443 42.7279 56.049 42.3014 55.6475 41.878C55.4017 41.6196 55.1496 41.3612 54.8944 41.1059C54.6391 40.8476 54.3808 40.5985 54.1225 40.3495C52.5725 41.3021 50.9167 42.5349 49.2516 43.9763C49.7153 44.4152 50.1884 44.8697 50.6553 45.3367Z" fill="white"/>
</svg>
