<svg width="96" height="96" viewBox="0 0 96 96" fill="none" xmlns="http://www.w3.org/2000/svg">
<rect x="0.5" y="0.5" width="95" height="95" rx="47.5" fill="#F7F9FF"/>
<rect x="0.5" y="0.5" width="95" height="95" rx="47.5" stroke="#2414AE"/>
<path d="M46.3332 61.3334H38.5559C37.0219 61.3319 35.7787 60.0887 35.7772 58.5547V45.6214C34.6882 44.8486 34.3491 43.3834 34.9879 42.2107C36.1879 40.0667 37.4119 37.9534 38.6159 35.928C39.0988 35.1374 39.9615 34.6584 40.8879 34.6666C41.4526 34.6723 42.0019 34.8516 42.4612 35.18L42.4932 35.2C43.0426 35.52 48.3492 38.6787 52.6146 41.216L56.3999 43.4667L56.5732 43.5694C59.5306 45.3174 60.1959 45.7147 60.2332 45.74C61.3219 46.5108 61.6567 47.9771 61.0106 49.144C59.8332 51.2467 58.6106 53.36 57.3826 55.4267C56.9059 56.2088 56.0585 56.6886 55.1426 56.6947C54.9631 56.6948 54.7842 56.6747 54.6092 56.6347C54.4546 56.7267 53.6012 57.2747 52.5199 57.968C50.5959 59.2014 47.9666 60.888 47.6626 61.044C47.2524 61.2551 46.794 61.3549 46.3332 61.3334ZM37.9999 49.3734V58.5547C37.9999 58.8618 38.2488 59.1107 38.5559 59.1107H43.6532C41.7159 55.84 39.8146 52.5627 37.9999 49.3734ZM39.8106 48.04C40.3439 48.956 46.0986 58.8827 46.1466 58.9494C46.2224 59.0478 46.3396 59.1055 46.4639 59.1054C46.5294 59.1054 46.594 59.0894 46.6519 59.0587C46.8319 58.9574 52.2439 55.48 52.2972 55.4454C51.8786 55.1987 48.8492 53.3934 45.6412 51.4827L39.7839 48L39.7932 48.0147L39.8066 48.0374V48.0454L39.8106 48.04ZM40.4426 37.2C39.3652 38.9334 36.9546 43.2374 36.9226 43.316C36.8435 43.5049 36.9137 43.7232 37.0879 43.8307C37.2652 43.936 54.8932 54.4387 55.0612 54.4654C55.0825 54.4669 55.1039 54.4669 55.1252 54.4654C55.2701 54.4659 55.4047 54.3905 55.4799 54.2667C56.5652 52.444 59.0652 48.0574 59.0719 48.044C59.1491 47.8544 59.0788 47.6367 58.9052 47.528C58.7359 47.4267 41.1412 36.9707 41.0279 36.9214C40.9764 36.8997 40.9211 36.8884 40.8652 36.888C40.7248 36.8888 40.5942 36.9599 40.5172 37.0774L40.5079 37.0934L40.4972 37.1094L40.4812 37.136V37.1427L40.4612 37.1747L40.4412 37.2H40.4426ZM42.2466 44.52C41.0206 44.5193 40.0271 43.5255 40.0266 42.2996C40.0261 41.0737 41.0189 40.0791 42.2448 40.0774C43.4707 40.0757 44.4663 41.0674 44.4692 42.2934C44.4678 43.5203 43.4735 44.5146 42.2466 44.516V44.52Z" fill="#2414AE"/>
</svg>
