<svg width="96" height="96" viewBox="0 0 96 96" fill="none" xmlns="http://www.w3.org/2000/svg">
<rect x="0.5" y="0.5" width="95" height="95" rx="47.5" fill="#F7F9FF"/>
<rect x="0.5" y="0.5" width="95" height="95" rx="47.5" stroke="#2414AE"/>
<path d="M43.9998 36C40.3179 36 37.3332 38.9848 37.3332 42.6667C37.3332 46.3486 40.3179 49.3333 43.9998 49.3333C47.6817 49.3333 50.6665 46.3486 50.6665 42.6667C50.6665 38.9848 47.6817 36 43.9998 36ZM39.9998 42.6667C39.9998 40.4575 41.7907 38.6667 43.9998 38.6667C46.209 38.6667 47.9998 40.4575 47.9998 42.6667C47.9998 44.8758 46.209 46.6667 43.9998 46.6667C41.7907 46.6667 39.9998 44.8758 39.9998 42.6667Z" fill="#2414AE"/>
<path d="M54.5444 42.9577C54.1693 42.7665 53.7542 42.6667 53.3332 42.6667V40.0001C54.1753 40.0001 55.0055 40.1994 55.7557 40.5819C55.8383 40.6241 55.9197 40.6683 55.9998 40.7145C56.647 41.0882 57.2094 41.5943 57.6496 42.2007C58.1442 42.8823 58.4704 43.6713 58.6015 44.5032C58.7326 45.335 58.6648 46.1861 58.4037 46.9867C58.1427 47.7874 57.6957 48.5148 57.0995 49.1095C56.5032 49.7042 55.7746 50.1492 54.9733 50.4082C54.2602 50.6387 53.5076 50.7159 52.7646 50.6363C52.6726 50.6264 52.5808 50.6141 52.4892 50.5995C51.6582 50.4663 50.8706 50.1384 50.1907 49.6425L50.1893 49.6415L51.7612 47.4874C52.1013 47.7356 52.4954 47.8997 52.9112 47.9663C53.3269 48.033 53.7526 48.0002 54.1532 47.8707C54.5539 47.7412 54.9181 47.5187 55.2163 47.2214C55.5144 46.924 55.7379 46.5603 55.8684 46.16C55.9989 45.7597 56.0328 45.3342 55.9673 44.9183C55.9017 44.5023 55.7386 44.1079 55.4913 43.7671C55.244 43.4263 54.9195 43.149 54.5444 42.9577Z" fill="#2414AE"/>
<path d="M58.664 60C58.664 59.2999 58.5261 58.6068 58.2582 57.96C57.9903 57.3132 57.5976 56.7256 57.1026 56.2306C56.6076 55.7355 56.0199 55.3429 55.3732 55.075C54.7264 54.8071 54.0332 54.6692 53.3332 54.6692V52C54.2426 52 55.1443 52.1551 55.9998 52.4575C56.1326 52.5045 56.2642 52.555 56.3946 52.609C57.3652 53.011 58.2472 53.6003 58.99 54.3431C59.7329 55.086 60.3222 55.9679 60.7242 56.9385C60.7782 57.0689 60.8287 57.2006 60.8756 57.3333C61.1781 58.1888 61.3332 59.0906 61.3332 60H58.664Z" fill="#2414AE"/>
<path d="M53.3332 60H50.6665C50.6665 56.3181 47.6817 53.3333 43.9998 53.3333C40.3179 53.3333 37.3332 56.3181 37.3332 60H34.6665C34.6665 54.8453 38.8452 50.6667 43.9998 50.6667C49.1545 50.6667 53.3332 54.8453 53.3332 60Z" fill="#2414AE"/>
</svg>
