<svg width="96" height="96" viewBox="0 0 96 96" fill="none" xmlns="http://www.w3.org/2000/svg">
<rect x="0.5" y="0.5" width="95" height="95" rx="47.5" fill="#F7F9FF"/>
<rect x="0.5" y="0.5" width="95" height="95" rx="47.5" stroke="#2414AE"/>
<path d="M61.3332 59.9998H34.6665V46.6665C34.6665 45.1937 35.8604 43.9998 37.3332 43.9998H42.6665V37.3332C42.6665 35.8604 43.8604 34.6665 45.3332 34.6665H50.6665C52.1393 34.6665 53.3332 35.8604 53.3332 37.3332V41.3332H58.6665C60.1393 41.3332 61.3332 42.5271 61.3332 43.9998V59.9998ZM53.3332 43.9998V57.3332H58.6665V43.9998H53.3332ZM45.3332 37.3332V57.3332H50.6665V37.3332H45.3332ZM37.3332 46.6665V57.3332H42.6665V46.6665H37.3332Z" fill="#2414AE"/>
</svg>
