<svg width="96" height="96" viewBox="0 0 96 96" fill="none" xmlns="http://www.w3.org/2000/svg">
<rect x="0.5" y="0.5" width="95" height="95" rx="47.5" fill="#F7F9FF"/>
<rect x="0.5" y="0.5" width="95" height="95" rx="47.5" stroke="#2414AE"/>
<path d="M61.3333 39.3335H44C42.5333 39.3335 41.3333 40.5335 41.3333 42.0002V54.0002C41.3333 55.4802 42.5333 56.6668 44 56.6668H61.3333C62.8133 56.6668 64 55.4802 64 54.0002V42.0002C64 40.5335 62.8133 39.3335 61.3333 39.3335ZM61.3333 54.0002H44V44.2268L52.6667 48.6668L61.3333 44.2268V54.0002ZM52.6667 46.4135L44 42.0002H61.3333L52.6667 46.4135ZM38.6667 54.0002C38.6667 54.2268 38.7067 54.4402 38.7333 54.6668H33.3333C32.5973 54.6668 32 54.0668 32 53.3335C32 52.6002 32.5973 52.0002 33.3333 52.0002H38.6667V54.0002ZM36 41.3335H38.7333C38.7067 41.5602 38.6667 41.7735 38.6667 42.0002V44.0002H36C35.2667 44.0002 34.6667 43.4002 34.6667 42.6668C34.6667 41.9335 35.2667 41.3335 36 41.3335ZM33.3333 48.0002C33.3333 47.2668 33.9333 46.6668 34.6667 46.6668H38.6667V49.3335H34.6667C33.9333 49.3335 33.3333 48.7335 33.3333 48.0002Z" fill="#2414AE"/>
</svg>
