<svg width="96" height="96" viewBox="0 0 96 96" fill="none" xmlns="http://www.w3.org/2000/svg">
<rect x="0.5" y="0.5" width="95" height="95" rx="47.5" fill="#F7F9FF"/>
<rect x="0.5" y="0.5" width="95" height="95" rx="47.5" stroke="#2414AE"/>
<path d="M48.0001 61.3332C40.6396 61.3251 34.6748 55.3603 34.6667 47.9999V47.7332C34.8133 40.4059 40.8462 34.5705 48.1743 34.6677C55.5024 34.7649 61.3783 40.7584 61.3305 48.087C61.2826 55.4156 55.3288 61.3317 48.0001 61.3332ZM47.9787 58.6665H48.0001C53.889 58.6606 58.659 53.8835 58.6561 47.9945C58.6531 42.1056 53.8784 37.3332 47.9894 37.3332C42.1005 37.3332 37.3257 42.1056 37.3227 47.9945C37.3198 53.8835 42.0898 58.6606 47.9787 58.6665Z" fill="#2414AE"/>
<path d="M44 50.6667H45.7778C45.7778 51.6267 46.9956 52.4444 48.4444 52.4444C49.8933 52.4444 51.1111 51.6267 51.1111 50.6667C51.1111 49.6889 50.1867 49.3333 48.2311 48.8622C46.3467 48.3911 44 47.8044 44 45.3333C44 43.7422 45.3067 42.3911 47.1111 41.9378V40H49.7778V41.9378C51.5822 42.3911 52.8889 43.7422 52.8889 45.3333H51.1111C51.1111 44.3733 49.8933 43.5556 48.4444 43.5556C46.9956 43.5556 45.7778 44.3733 45.7778 45.3333C45.7778 46.3111 46.7022 46.6667 48.6578 47.1378C50.5422 47.6089 52.8889 48.1956 52.8889 50.6667C52.8889 52.2578 51.5822 53.6089 49.7778 54.0622V56H47.1111V54.0622C45.3067 53.6089 44 52.2578 44 50.6667Z" fill="#2414AE"/>
</svg>
