<svg width="60" height="40" viewBox="0 0 60 40" fill="none" xmlns="http://www.w3.org/2000/svg">
<g style="mix-blend-mode:multiply">
<rect width="40" height="40" rx="20" fill="#E8FFA3"/>
<path d="M35 5C30.3976 5 26.6667 8.73096 26.6667 13.3333C26.6667 17.9357 30.3976 21.6667 35 21.6667C39.6024 21.6667 43.3333 17.9357 43.3333 13.3333C43.3333 8.73096 39.6024 5 35 5ZM30 13.3333C30 10.5719 32.2386 8.33333 35 8.33333C37.7614 8.33333 40 10.5719 40 13.3333C40 16.0948 37.7614 18.3333 35 18.3333C32.2386 18.3333 30 16.0948 30 13.3333Z" fill="#2414AE"/>
<path d="M48.1807 13.6971C47.7118 13.4581 47.193 13.3334 46.6667 13.3334V10.0001C47.7193 10.0001 48.757 10.2493 49.6948 10.7274C49.7981 10.7801 49.8999 10.8354 50 10.8932C50.809 11.3602 51.512 11.9928 52.0622 12.7509C52.6805 13.6029 53.0882 14.5891 53.2521 15.6289C53.4159 16.6688 53.3312 17.7326 53.0049 18.7334C52.6785 19.7342 52.1199 20.6435 51.3745 21.3869C50.6292 22.1303 49.7185 22.6866 48.7168 23.0103C47.8255 23.2983 46.8847 23.3949 45.9559 23.2953C45.841 23.283 45.7262 23.2677 45.6117 23.2493C44.573 23.0829 43.5885 22.673 42.7385 22.0532L42.7368 22.0519L44.7017 19.3593C45.1269 19.6695 45.6195 19.8746 46.1392 19.9579C46.6589 20.0412 47.1909 20.0002 47.6917 19.8384C48.1925 19.6765 48.6479 19.3984 49.0205 19.0267C49.3932 18.655 49.6725 18.2004 49.8357 17.7C49.9988 17.1996 50.0412 16.6677 49.9593 16.1478C49.8773 15.6279 49.6735 15.1348 49.3643 14.7089C49.0552 14.2829 48.6496 13.9362 48.1807 13.6971Z" fill="#2414AE"/>
<path d="M53.3302 35C53.3302 34.1249 53.1578 33.2584 52.8229 32.45C52.4881 31.6415 51.9972 30.907 51.3785 30.2882C50.7597 29.6694 50.0251 29.1786 49.2167 28.8437C48.4082 28.5089 47.5417 28.3365 46.6667 28.3365V25C47.8035 25 48.9306 25.1938 50 25.5719C50.166 25.6306 50.3305 25.6937 50.4935 25.7612C51.7068 26.2638 52.8092 27.0003 53.7377 27.9289C54.6663 28.8575 55.4029 29.9599 55.9055 31.1732C55.973 31.3362 56.0361 31.5007 56.0948 31.6667C56.4728 32.736 56.6667 33.8632 56.6667 35H53.3302Z" fill="#2414AE"/>
<path d="M46.6667 35H43.3333C43.3333 30.3976 39.6024 26.6667 35 26.6667C30.3976 26.6667 26.6667 30.3976 26.6667 35H23.3333C23.3333 28.5567 28.5567 23.3333 35 23.3333C41.4433 23.3333 46.6667 28.5567 46.6667 35Z" fill="#2414AE"/>
</g>
</svg>
