<svg width="61" height="40" viewBox="0 0 61 40" fill="none" xmlns="http://www.w3.org/2000/svg">
<g style="mix-blend-mode:multiply">
<rect x="0.666626" width="40" height="40" rx="20" fill="#E8FFA3"/>
<mask id="mask0_2168_76" style="mask-type:alpha" maskUnits="userSpaceOnUse" x="20" y="0" width="41" height="40">
<rect x="20.6666" width="40" height="40" fill="#D9D9D9"/>
</mask>
<g mask="url(#mask0_2168_76)">
<path d="M40.6666 36.6666C38.3611 36.6666 36.1944 36.2291 34.1666 35.3541C32.1388 34.4791 30.3749 33.2916 28.8749 31.7916C27.3749 30.2916 26.1874 28.5277 25.3124 26.4999C24.4374 24.4721 23.9999 22.3055 23.9999 19.9999C23.9999 17.6944 24.4374 15.5277 25.3124 13.4999C26.1874 11.4721 27.3749 9.70825 28.8749 8.20825C30.3749 6.70825 32.1388 5.52075 34.1666 4.64575C36.1944 3.77075 38.3611 3.33325 40.6666 3.33325C42.9722 3.33325 45.1388 3.77075 47.1666 4.64575C49.1944 5.52075 50.9583 6.70825 52.4583 8.20825C53.9583 9.70825 55.1458 11.4721 56.0208 13.4999C56.8958 15.5277 57.3333 17.6944 57.3333 19.9999C57.3333 22.3055 56.8958 24.4721 56.0208 26.4999C55.1458 28.5277 53.9583 30.2916 52.4583 31.7916C50.9583 33.2916 49.1944 34.4791 47.1666 35.3541C45.1388 36.2291 42.9722 36.6666 40.6666 36.6666ZM40.6666 33.3333C44.3888 33.3333 47.5416 32.0416 50.1249 29.4583C52.7083 26.8749 53.9999 23.7221 53.9999 19.9999C53.9999 16.2777 52.7083 13.1249 50.1249 10.5416C47.5416 7.95825 44.3888 6.66659 40.6666 6.66659C36.9444 6.66659 33.7916 7.95825 31.2083 10.5416C28.6249 13.1249 27.3333 16.2777 27.3333 19.9999C27.3333 23.7221 28.6249 26.8749 31.2083 29.4583C33.7916 32.0416 36.9444 33.3333 40.6666 33.3333ZM40.6666 29.9999C37.8888 29.9999 35.5277 29.0277 33.5833 27.0833C31.6388 25.1388 30.6666 22.7777 30.6666 19.9999C30.6666 17.2221 31.6388 14.861 33.5833 12.9166C35.5277 10.9721 37.8888 9.99992 40.6666 9.99992C43.4444 9.99992 45.8055 10.9721 47.7499 12.9166C49.6944 14.861 50.6666 17.2221 50.6666 19.9999C50.6666 22.7777 49.6944 25.1388 47.7499 27.0833C45.8055 29.0277 43.4444 29.9999 40.6666 29.9999ZM40.6666 26.6666C42.4999 26.6666 44.0694 26.0138 45.3749 24.7083C46.6805 23.4027 47.3333 21.8333 47.3333 19.9999C47.3333 18.1666 46.6805 16.5971 45.3749 15.2916C44.0694 13.986 42.4999 13.3333 40.6666 13.3333C38.8333 13.3333 37.2638 13.986 35.9583 15.2916C34.6527 16.5971 33.9999 18.1666 33.9999 19.9999C33.9999 21.8333 34.6527 23.4027 35.9583 24.7083C37.2638 26.0138 38.8333 26.6666 40.6666 26.6666ZM40.6666 23.3333C39.7499 23.3333 38.9652 23.0069 38.3124 22.3541C37.6597 21.7013 37.3333 20.9166 37.3333 19.9999C37.3333 19.0833 37.6597 18.2985 38.3124 17.6458C38.9652 16.993 39.7499 16.6666 40.6666 16.6666C41.5833 16.6666 42.368 16.993 43.0208 17.6458C43.6736 18.2985 43.9999 19.0833 43.9999 19.9999C43.9999 20.9166 43.6736 21.7013 43.0208 22.3541C42.368 23.0069 41.5833 23.3333 40.6666 23.3333Z" fill="#2414AE"/>
</g>
</g>
</svg>
