<svg width="60" height="40" viewBox="0 0 60 40" fill="none" xmlns="http://www.w3.org/2000/svg">
<g style="mix-blend-mode:multiply">
<rect width="40" height="40" rx="20" fill="#E8FFA3"/>
<path d="M39.1667 18.3333L49.8 27.2833L48.3333 27.5833L47.2667 27.7833C46.2167 28 45.6167 29.1667 46.0833 30.1167L46.5333 31.0833L48.8 35.9833L46.4333 37.0833L44.1667 32.2L43.7333 31.2333C43.2833 30.25 42.0333 29.95 41.2 30.6333L40.35 31.3L39.1667 32.25V18.3333ZM37.9333 14.4833C37.5974 14.4833 37.2752 14.6168 37.0377 14.8543C36.8001 15.0919 36.6667 15.4141 36.6667 15.75V34.8333C36.6667 35.5333 37.2333 36.1 37.9333 36.1C38.25 36.1 38.5167 36 38.7333 35.8333L41.9167 33.25L44.6833 39.2833C44.9 39.7333 45.35 40 45.8333 40C46.0167 40 46.2 40 46.3833 39.8667L50.9833 37.7333C51.6167 37.4333 51.9167 36.6667 51.5833 36.05L48.8 30L52.8167 29.25C53.0833 29.1667 53.3333 29.05 53.5333 28.8167C53.9833 28.2833 53.9167 27.5 53.3333 27.0167L38.7667 14.7667L38.75 14.7833C38.5333 14.6 38.25 14.4833 37.9333 14.4833ZM45 16.6667V13.3333H53.3333V16.6667H45ZM43.05 7.93333L47.7667 3.21667L50.1167 5.56667L45.4 10.2833L43.05 7.93333ZM36.6667 0H40V8.33333H36.6667V0ZM26.55 24.4333L31.2667 19.7167L33.6167 22.0667L28.9 26.7833L26.55 24.4333ZM26.55 5.56667L28.9 3.21667L33.6167 7.93333L31.2667 10.2833L26.55 5.56667ZM31.6667 16.6667H23.3333V13.3333H31.6667V16.6667Z" fill="#2414AE"/>
</g>
</svg>
