<svg width="61" height="40" viewBox="0 0 61 40" fill="none" xmlns="http://www.w3.org/2000/svg">
<g style="mix-blend-mode:multiply">
<rect x="0.333374" width="40" height="40" rx="20" fill="#E8FFA3"/>
<g clip-path="url(#clip0_2168_383)">
<path d="M57 9.16675H35.3334C33.5 9.16675 32 10.6667 32 12.5001V27.5001C32 29.3501 33.5 30.8334 35.3334 30.8334H57C58.85 30.8334 60.3334 29.3501 60.3334 27.5001V12.5001C60.3334 10.6667 58.85 9.16675 57 9.16675ZM57 27.5001H35.3334V15.2834L46.1667 20.8334L57 15.2834V27.5001ZM46.1667 18.0167L35.3334 12.5001H57L46.1667 18.0167ZM28.6667 27.5001C28.6667 27.7834 28.7167 28.0501 28.75 28.3334H22C21.08 28.3334 20.3334 27.5834 20.3334 26.6667C20.3334 25.7501 21.08 25.0001 22 25.0001H28.6667V27.5001ZM25.3334 11.6667H28.75C28.7167 11.9501 28.6667 12.2167 28.6667 12.5001V15.0001H25.3334C24.4167 15.0001 23.6667 14.2501 23.6667 13.3334C23.6667 12.4167 24.4167 11.6667 25.3334 11.6667ZM22 20.0001C22 19.0834 22.75 18.3334 23.6667 18.3334H28.6667V21.6667H23.6667C22.75 21.6667 22 20.9167 22 20.0001Z" fill="#2414AE"/>
</g>
</g>
<defs>
<clipPath id="clip0_2168_383">
<rect width="40" height="40" fill="white" transform="translate(20.3334)"/>
</clipPath>
</defs>
</svg>
