<svg width="61" height="40" viewBox="0 0 61 40" fill="none" xmlns="http://www.w3.org/2000/svg">
<g style="mix-blend-mode:multiply">
<rect x="0.666626" width="40" height="40" rx="20" fill="#E8FFA3"/>
<path d="M40.6666 36.6666C31.466 36.6565 24.01 29.2005 23.9999 19.9999V19.6666C24.1832 10.5075 31.7242 3.21321 40.8844 3.33475C50.0445 3.45629 57.3894 10.9481 57.3296 20.1088C57.2697 29.2696 49.8276 36.6648 40.6666 36.6666ZM40.6399 33.3333H40.6666C48.0278 33.3259 53.9903 27.3545 53.9866 19.9933C53.9829 12.6321 48.0145 6.66662 40.6533 6.66662C33.2921 6.66662 27.3236 12.6321 27.3199 19.9933C27.3163 27.3545 33.2788 33.3259 40.6399 33.3333Z" fill="#2414AE"/>
<path d="M35.6666 23.3333H37.8888C37.8888 24.5333 39.4111 25.5556 41.2222 25.5556C43.0333 25.5556 44.5555 24.5333 44.5555 23.3333C44.5555 22.1111 43.4 21.6667 40.9555 21.0778C38.6 20.4889 35.6666 19.7556 35.6666 16.6667C35.6666 14.6778 37.3 12.9889 39.5555 12.4222V10H42.8888V12.4222C45.1444 12.9889 46.7777 14.6778 46.7777 16.6667H44.5555C44.5555 15.4667 43.0333 14.4444 41.2222 14.4444C39.4111 14.4444 37.8888 15.4667 37.8888 16.6667C37.8888 17.8889 39.0444 18.3333 41.4888 18.9222C43.8444 19.5111 46.7777 20.2444 46.7777 23.3333C46.7777 25.3222 45.1444 27.0111 42.8888 27.5778V30H39.5555V27.5778C37.3 27.0111 35.6666 25.3222 35.6666 23.3333Z" fill="#2414AE"/>
</g>
</svg>
