<svg width="60" height="40" viewBox="0 0 60 40" fill="none" xmlns="http://www.w3.org/2000/svg">
<g style="mix-blend-mode:multiply">
<rect width="40" height="40" rx="20" fill="#E8FFA3"/>
<mask id="mask0_2168_147" style="mask-type:alpha" maskUnits="userSpaceOnUse" x="20" y="0" width="40" height="40">
<rect x="20" width="40" height="40" fill="#D9D9D9"/>
</mask>
<g mask="url(#mask0_2168_147)">
<path d="M51.6667 35C50.5833 35 49.6111 34.6875 48.75 34.0625C47.8889 33.4375 47.2917 32.6389 46.9583 31.6667H38.3333C36.5 31.6667 34.9306 31.0139 33.625 29.7083C32.3194 28.4028 31.6667 26.8333 31.6667 25C31.6667 23.1667 32.3194 21.5972 33.625 20.2917C34.9306 18.9861 36.5 18.3333 38.3333 18.3333H41.6667C42.5833 18.3333 43.3681 18.0069 44.0208 17.3542C44.6736 16.7014 45 15.9167 45 15C45 14.0833 44.6736 13.2986 44.0208 12.6458C43.3681 11.9931 42.5833 11.6667 41.6667 11.6667H33.0417C32.6806 12.6389 32.0764 13.4375 31.2292 14.0625C30.3819 14.6875 29.4167 15 28.3333 15C26.9444 15 25.7639 14.5139 24.7917 13.5417C23.8194 12.5694 23.3333 11.3889 23.3333 10C23.3333 8.61111 23.8194 7.43056 24.7917 6.45833C25.7639 5.48611 26.9444 5 28.3333 5C29.4167 5 30.3819 5.3125 31.2292 5.9375C32.0764 6.5625 32.6806 7.36111 33.0417 8.33333H41.6667C43.5 8.33333 45.0694 8.98611 46.375 10.2917C47.6806 11.5972 48.3333 13.1667 48.3333 15C48.3333 16.8333 47.6806 18.4028 46.375 19.7083C45.0694 21.0139 43.5 21.6667 41.6667 21.6667H38.3333C37.4167 21.6667 36.6319 21.9931 35.9792 22.6458C35.3264 23.2986 35 24.0833 35 25C35 25.9167 35.3264 26.7014 35.9792 27.3542C36.6319 28.0069 37.4167 28.3333 38.3333 28.3333H46.9583C47.3194 27.3611 47.9236 26.5625 48.7708 25.9375C49.6181 25.3125 50.5833 25 51.6667 25C53.0556 25 54.2361 25.4861 55.2083 26.4583C56.1806 27.4306 56.6667 28.6111 56.6667 30C56.6667 31.3889 56.1806 32.5694 55.2083 33.5417C54.2361 34.5139 53.0556 35 51.6667 35ZM28.3333 11.6667C28.8056 11.6667 29.2014 11.5069 29.5208 11.1875C29.8403 10.8681 30 10.4722 30 10C30 9.52778 29.8403 9.13194 29.5208 8.8125C29.2014 8.49306 28.8056 8.33333 28.3333 8.33333C27.8611 8.33333 27.4653 8.49306 27.1458 8.8125C26.8264 9.13194 26.6667 9.52778 26.6667 10C26.6667 10.4722 26.8264 10.8681 27.1458 11.1875C27.4653 11.5069 27.8611 11.6667 28.3333 11.6667Z" fill="#2414AE"/>
</g>
</g>
</svg>
