<svg width="61" height="40" viewBox="0 0 61 40" fill="none" xmlns="http://www.w3.org/2000/svg">
<g style="mix-blend-mode:multiply">
<rect x="0.333374" width="40" height="40" rx="20" fill="#E8FFA3"/>
<path d="M40.3334 36.6666C31.1286 36.6666 23.6667 29.2047 23.6667 19.9999C23.6667 10.7952 31.1286 3.33325 40.3334 3.33325C49.5381 3.33325 57 10.7952 57 19.9999C56.9899 29.2005 49.5339 36.6565 40.3334 36.6666ZM40.3067 33.3333H40.3334C47.6945 33.3259 53.657 27.3545 53.6534 19.9933C53.6497 12.6321 47.6812 6.66659 40.32 6.66659C32.9588 6.66659 26.9904 12.6321 26.9867 19.9933C26.983 27.3545 32.9455 33.3259 40.3067 33.3333ZM37 28.3333L30.3334 21.6666L32.6834 19.3166L37 23.6166L47.9834 12.6333L50.3334 14.9999L37 28.3333Z" fill="#2414AE"/>
</g>
</svg>
