<svg width="131" height="40" viewBox="0 0 131 40" fill="none" xmlns="http://www.w3.org/2000/svg">
<path fill-rule="evenodd" clip-rule="evenodd" d="M67.2826 15.702C67.2826 17.2584 66.7241 18.5268 65.6245 19.4949C67.3968 20.4729 68.2631 21.9399 68.2631 23.9455C68.2631 27.433 65.4607 29.6 60.9505 29.6H52.0021V10.4H60.6973C64.6986 10.4 67.2826 12.4801 67.2826 15.702ZM60.2976 14.7464H56.6537V17.8119H60.0693C61.7373 17.8119 62.5838 17.2708 62.5838 16.2034C62.5838 15.2379 61.8143 14.7464 60.2976 14.7464ZM56.6537 25.2511H60.9753C62.693 25.2511 63.5618 24.7001 63.5618 23.6178C63.5618 23.2257 63.5618 22.0342 60.7494 22.0342H56.6537V25.2511ZM75.3424 10.4H80.0462V29.6H75.3424V10.4ZM106.407 10.4H100.882L96.9055 16.1017L92.9538 10.4H87.3266L94.0559 19.8473L87.0709 29.5975H92.5988L96.826 23.5434L101.031 29.5975H106.653L99.7029 19.7977L106.407 10.4ZM120.4 17.4942L124.927 10.4H130.408L122.73 22.0243V29.5975H118.004V22.0987L110.334 10.4H115.912L120.4 17.4942Z" fill="#110B3B"/>
<path d="M22.6447 19.2473C22.3563 18.9364 22.0597 18.6276 21.7529 18.3208C21.4461 18.0139 21.1352 17.7153 20.8304 17.4269C21.9247 16.4799 23.0129 15.6699 24.0315 15.044C24.2013 15.2076 24.371 15.3713 24.5388 15.541C24.7065 15.7088 24.8722 15.8785 25.0338 16.0483C25.2976 16.3265 25.5574 16.6067 25.8069 16.891C26.0217 16.5535 26.218 16.2222 26.396 15.8969C26.4212 15.8518 26.4456 15.8067 26.4697 15.7621C26.4827 15.738 26.4956 15.714 26.5085 15.6904C27.523 13.7636 27.3819 12.9761 27.2408 12.837C27.1753 12.7736 27.0321 12.7368 26.8378 12.7368C26.5126 12.7368 25.7599 12.8452 24.3854 13.5693C24.3179 13.6061 23.5242 14.054 23.1847 14.2708C22.162 14.9213 21.0841 15.7394 20.0041 16.6824C19.728 16.9217 19.4539 17.1692 19.1798 17.4249C18.8709 17.7153 18.56 18.0119 18.2532 18.3187C17.9464 18.6235 17.6478 18.9344 17.3594 19.2453C16.4124 18.1489 15.6024 17.0628 14.9765 16.0442C15.1401 15.8765 16.5392 14.5204 16.8235 14.2708C15.6596 13.4445 13.7411 12.7532 13.1724 12.7368C12.9802 12.7327 12.8308 12.7716 12.7695 12.837C12.4034 13.2236 13.3483 15.5329 14.2054 16.891C15.3262 18.826 18.8709 22.4238 19.1798 22.7143C18.0855 23.6593 16.9973 24.4692 15.9787 25.0951C15.8091 24.9317 15.639 24.7677 15.4715 24.6002C15.3037 24.4324 15.1381 24.2627 14.9744 24.0908C14.7106 23.8147 14.4549 23.5345 14.2033 23.2502C13.9886 23.5877 13.7922 23.9211 13.6142 24.2443C13.5754 24.3138 13.5386 24.3813 13.5017 24.4508C12.4872 26.3776 12.6284 27.1631 12.7695 27.3042C12.8329 27.3656 13.8004 27.6151 15.6228 26.5699C18.5969 24.864 21.4277 22.1539 22.6468 20.8939C23.5938 21.9882 24.4038 23.0743 25.0297 24.0929C24.866 24.2647 23.4486 25.627 23.1786 25.8663C23.1786 25.8663 23.1806 25.8683 23.1827 25.8683C23.203 25.8812 23.2293 25.8982 23.261 25.9188C23.7563 26.2393 25.5804 27.4197 26.8337 27.4024C27.026 27.4003 27.1712 27.3676 27.2346 27.3042C27.3757 27.1631 27.5169 26.3776 26.5024 24.4508C26.484 24.4171 26.465 24.3829 26.4461 24.3486C26.4272 24.3143 26.4083 24.2801 26.3899 24.2463C26.2119 23.9231 26.0156 23.5897 25.8008 23.2522C25.1483 22.2295 24.3322 21.1516 23.3892 20.0716C23.1479 19.7955 22.9004 19.5214 22.6447 19.2473Z" fill="#2414AE"/>
<path fill-rule="evenodd" clip-rule="evenodd" d="M0 20C0 8.97116 8.97321 0 20.002 0C31.0288 0 40.0021 8.97116 40.0021 20C40.0021 31.0288 31.0288 40 20.002 40C8.97116 40 0 31.0288 0 20ZM28.83 19.0182C28.6357 19.368 28.5294 19.548 28.2021 20.0716C28.4537 20.4705 29.2207 21.755 29.7566 23.06C30.902 25.8458 30.7466 28.1367 29.4048 29.4764C28.6828 30.2005 27.6498 30.583 26.4205 30.583C25.404 30.583 24.2422 30.3478 22.9924 29.8282C21.8103 29.3375 20.6113 28.6307 20.126 28.3445C20.0772 28.3158 20.0357 28.2913 20.0021 28.2717C19.2105 28.7667 17.6457 29.5746 17.0117 29.8282C15.7537 30.3293 14.6001 30.583 13.5836 30.583C12.3543 30.583 11.3213 30.2005 10.5973 29.4764C9.25957 28.1367 9.13275 25.8581 10.2455 23.062C10.4991 22.4279 11.1741 21.125 11.1741 21.125C11.3684 20.7752 11.5668 20.45 11.802 20.0716C11.2088 19.0714 10.4991 17.7153 10.2455 17.0812C9.13275 14.2852 9.25752 12.0066 10.5973 10.6668C11.3213 9.94276 12.3543 9.56027 13.5836 9.56027C14.6001 9.56027 15.7537 9.81186 17.0117 10.313C17.6457 10.5666 18.2921 10.8775 18.9487 11.2416C19.2984 11.438 19.6502 11.6466 20.0021 11.8695C20.3498 11.6425 22.1395 10.6341 22.9924 10.315C24.2585 9.84254 25.4019 9.55823 26.4205 9.55823C27.6498 9.55823 28.6828 9.94072 29.4068 10.6648C30.7466 12.0066 30.8714 14.2852 29.7587 17.0812C29.505 17.7153 29.1921 18.3658 28.83 19.0182Z" fill="#2414AE"/>
</svg>
