<svg width="20" height="20" viewBox="0 0 20 20" fill="none" xmlns="http://www.w3.org/2000/svg">
<g id="Icon right">
<path id="color-fix" d="M15.8313 16.6666C8.7216 16.6767 3.32578 11.2162 3.33338 4.16874C3.33338 3.7085 3.70648 3.33332 4.16672 3.33332H6.36618C6.77916 3.33332 7.12998 3.63676 7.19062 4.04526C7.33597 5.02431 7.62102 5.97746 8.03711 6.87557L8.12275 7.0604C8.24182 7.31741 8.16111 7.62277 7.9306 7.78738C7.24946 8.27381 6.98914 9.25294 7.51979 10.0169C8.18569 10.9757 9.02508 11.8149 9.9836 12.4805C10.7476 13.011 11.7265 12.7507 12.213 12.0697C12.3777 11.8391 12.6832 11.7583 12.9404 11.8774L13.1244 11.9627C14.0225 12.3787 14.9757 12.6638 15.9549 12.8091C16.3634 12.8697 16.6667 13.2205 16.6667 13.6335V15.8333C16.6667 16.2935 16.2927 16.6666 15.8325 16.6666L15.8313 16.6666Z" fill="#2414AE"/>
</g>
</svg>
