<svg width="96" height="96" viewBox="0 0 96 96" fill="none" xmlns="http://www.w3.org/2000/svg">
<rect x="0.5" y="0.5" width="95" height="95" rx="47.5" stroke="#2414AE"/>
<mask id="mask0_2250_596" style="mask-type:alpha" maskUnits="userSpaceOnUse" x="28" y="28" width="40" height="40">
<rect x="28" y="28" width="40" height="40" fill="#D9D9D9"/>
</mask>
<g mask="url(#mask0_2250_596)">
<path d="M31.3333 62.9998V35.9165L39.6666 29.6665L47.9999 35.9165V39.6665H64.6666V62.9998H31.3333ZM34.6666 59.6665H37.9999V56.3332H34.6666V59.6665ZM34.6666 52.9998H37.9999V49.6665H34.6666V52.9998ZM34.6666 46.3332H37.9999V42.9998H34.6666V46.3332ZM34.6666 39.6665H37.9999V36.3332H34.6666V39.6665ZM41.3333 39.6665H44.6666V36.3332H41.3333V39.6665ZM41.3333 59.6665H61.3333V42.9998H41.3333V59.6665ZM51.3333 49.6665V46.3332H57.9999V49.6665H51.3333ZM51.3333 56.3332V52.9998H57.9999V56.3332H51.3333ZM44.6666 49.6665V46.3332H47.9999V49.6665H44.6666ZM44.6666 56.3332V52.9998H47.9999V56.3332H44.6666Z" fill="#2414AE"/>
</g>
</svg>
