<svg width="96" height="96" viewBox="0 0 96 96" fill="none" xmlns="http://www.w3.org/2000/svg">
<rect x="0.5" y="0.5" width="95" height="95" rx="47.5" stroke="#2414AE"/>
<path d="M39.6666 41.3333C39.6666 36.731 43.3976 33 48 33C52.6023 33 56.3333 36.731 56.3333 41.3333C56.3333 45.9357 52.6023 49.6667 48 49.6667C43.3976 49.6667 39.6666 45.9357 39.6666 41.3333ZM48 46.3333C50.7614 46.3333 53 44.0948 53 41.3333C53 38.5719 50.7614 36.3333 48 36.3333C45.2385 36.3333 43 38.5719 43 41.3333C43 44.0948 45.2385 46.3333 48 46.3333Z" fill="#2414AE"/>
<path d="M38.5719 55.2386C36.0714 57.7391 34.6666 61.1304 34.6666 64.6667H38C38 62.0145 39.0535 59.471 40.9289 57.5956C42.8043 55.7202 45.3478 54.6667 48 54.6667C50.6521 54.6667 53.1957 55.7202 55.071 57.5956C56.9464 59.471 58 62.0145 58 64.6667H61.3333C61.3333 61.1304 59.9285 57.7391 57.428 55.2386C54.9276 52.7381 51.5362 51.3333 48 51.3333C44.4637 51.3333 41.0724 52.7381 38.5719 55.2386Z" fill="#2414AE"/>
</svg>
