<svg width="96" height="96" viewBox="0 0 96 96" fill="none" xmlns="http://www.w3.org/2000/svg">
<rect x="0.5" y="0.5" width="95" height="95" rx="47.5" fill="#F7F9FF"/>
<rect x="0.5" y="0.5" width="95" height="95" rx="47.5" stroke="#2414AE"/>
<path d="M57.3333 61.3332H38.6667C37.1939 61.3332 36 60.1393 36 58.6665V39.9998C36 38.5271 37.1939 37.3332 38.6667 37.3332H41.3333V34.6665H44V37.3332H52V34.6665H54.6667V37.3332H57.3333C58.8061 37.3332 60 38.5271 60 39.9998V58.6665C60 60.1393 58.8061 61.3332 57.3333 61.3332ZM38.6667 45.3332V58.6665H57.3333V45.3332H38.6667ZM38.6667 39.9998V42.6665H57.3333V39.9998H38.6667ZM54.6667 55.9998H52V53.3332H54.6667V55.9998ZM49.3333 55.9998H46.6667V53.3332H49.3333V55.9998ZM44 55.9998H41.3333V53.3332H44V55.9998ZM54.6667 50.6665H52V47.9998H54.6667V50.6665ZM49.3333 50.6665H46.6667V47.9998H49.3333V50.6665ZM44 50.6665H41.3333V47.9998H44V50.6665Z" fill="#2414AE"/>
</svg>
