<svg width="96" height="96" viewBox="0 0 96 96" fill="none" xmlns="http://www.w3.org/2000/svg">
<rect x="0.5" y="0.5" width="95" height="95" rx="47.5" fill="#F7F9FF"/>
<rect x="0.5" y="0.5" width="95" height="95" rx="47.5" stroke="#2414AE"/>
<path d="M56.8093 44.5112C58.6874 43.3711 61.1336 43.9695 62.2723 45.8476C63.4123 47.7257 62.814 50.1718 60.9359 51.3106C60.8858 51.3409 60.8357 51.3699 60.7856 51.3976L40.0658 63.3291C38.1877 64.4692 35.7415 63.8708 34.6015 61.9927C33.4614 60.1146 34.0598 57.6685 35.9379 56.5284C35.988 56.4981 36.0381 56.4691 36.0882 56.4414L56.8093 44.5112Z" fill="#81C995"/>
<path d="M41.9214 36.0025C41.9306 33.8107 40.1606 32.0249 37.9688 32.0157C37.6868 32.0144 37.406 32.0433 37.1293 32.1013C35.2722 32.5574 33.974 34.2338 34.0004 36.1475V59.8459L41.9135 59.9896L41.9214 36.0025Z" fill="#34A853"/>
<path d="M56.8988 51.4121C58.8138 52.4045 61.1703 51.7692 62.3275 49.9478C63.4399 48.0763 62.8244 45.6565 60.9529 44.5441C60.9384 44.5362 60.9252 44.5283 60.9107 44.5191L40.0525 32.5664C38.1955 31.4448 35.7796 32.0405 34.6567 33.8976C34.629 33.9437 34.6013 33.9911 34.575 34.0386C33.4732 35.9246 34.1084 38.3483 35.9944 39.4515C36.0076 39.4594 36.0208 39.466 36.034 39.4739L56.8988 51.4121Z" fill="#5BB974"/>
<path d="M60.7736 51.4399L41.9148 61.9745V52.9253L56.879 44.5812C58.8626 43.482 61.3628 44.199 62.462 46.1839C62.5648 46.3684 62.6517 46.5608 62.7242 46.7585C63.2857 48.5839 62.4659 50.5516 60.7736 51.4399Z" fill="#81C995"/>
<path d="M37.9648 64C40.15 64 41.9214 62.2286 41.9214 60.0435C41.9214 57.8583 40.15 56.0869 37.9648 56.0869C35.7797 56.0869 34.0083 57.8583 34.0083 60.0435C34.0083 62.2286 35.7797 64 37.9648 64Z" fill="#1E8E3E"/>
</svg>
