<svg width="96" height="96" viewBox="0 0 96 96" fill="none" xmlns="http://www.w3.org/2000/svg">
<rect x="0.5" y="0.5" width="95" height="95" rx="47.5" fill="#F7F9FF"/>
<rect x="0.5" y="0.5" width="95" height="95" rx="47.5" stroke="#2414AE"/>
<path d="M32.6604 54.2841L43.3007 35.8999L52.5208 41.2098L41.8818 59.594L32.6604 54.2841Z" fill="#FBBC04"/>
<path d="M63.2502 54.2202L52.6033 35.8295C51.2289 33.2366 48.0083 32.246 45.4089 33.6169C42.8094 34.9878 41.8175 38.2002 43.1906 40.7931C43.2509 40.9068 43.3151 41.0179 43.3832 41.1277L54.0301 59.5184C55.4661 62.0773 58.7102 62.9908 61.2757 61.5585C63.8411 60.1261 64.7569 56.8902 63.3209 54.3313C63.2973 54.2895 63.2738 54.249 63.2502 54.2085V54.2202Z" fill="#4285F4"/>
<path d="M37.3234 62.2078C40.2635 62.2078 42.6469 59.8304 42.6469 56.8978C42.6469 53.9652 40.2635 51.5879 37.3234 51.5879C34.3834 51.5879 32 53.9652 32 56.8978C32 59.8304 34.3834 62.2078 37.3234 62.2078Z" fill="#34A853"/>
</svg>
