<svg width="96" height="96" viewBox="0 0 96 96" fill="none" xmlns="http://www.w3.org/2000/svg">
<rect x="0.5" y="0.5" width="95" height="95" rx="47.5" fill="#F7F9FF"/>
<rect x="0.5" y="0.5" width="95" height="95" rx="47.5" stroke="#2414AE"/>
<path d="M40.6038 32V36.986H45.7031V49.9988H50.6112V36.908V32H40.6038Z" fill="#0099FA"/>
<path d="M37.9101 48.8419C37.9101 44.9604 40.067 41.5828 43.2476 39.8438L35.9648 39.8433C34.1022 42.3598 33 45.4708 33 48.8419C33 55.5305 37.333 61.2057 43.3439 63.2179V57.8908C40.1109 56.1663 37.9101 52.7622 37.9101 48.8419Z" fill="#0099FA"/>
<path d="M53.0684 34.5005V39.8424C56.2497 41.5823 58.4092 44.9594 58.4092 48.8423C58.4092 54.5009 53.8186 59.0903 48.1582 59.0903C47.314 59.0903 46.4937 58.9875 45.709 58.7954V63.8021C46.5069 63.9307 47.3241 64 48.1582 64C56.5295 64 63.3167 57.2134 63.3167 48.8424C63.3165 42.1885 59.0298 36.5406 53.0684 34.5005Z" fill="#0099FA"/>
</svg>
