<svg width="96" height="96" viewBox="0 0 96 96" fill="none" xmlns="http://www.w3.org/2000/svg">
<rect x="0.5" y="0.5" width="95" height="95" rx="47.5" fill="#F7F9FF"/>
<rect x="0.5" y="0.5" width="95" height="95" rx="47.5" stroke="#2414AE"/>
<g clip-path="url(#clip0_2231_534)">
<path d="M32 40.9255H38.103L41.6568 50.0171L45.2567 40.9255H51.1984L42.2513 62.4484H36.2711L38.7204 56.7452L32.0002 40.9255H32ZM58.1175 48.19H51.4625L57.3692 34L64 34.0003L58.1175 48.19ZM53.2058 49.5481C55.2478 49.5481 56.903 51.2034 56.903 53.245C56.903 55.2867 55.2478 56.9421 53.2058 56.9421C51.1641 56.9421 49.5091 55.2867 49.5091 53.245C49.5091 51.2034 51.1643 49.5481 53.2058 49.5481Z" fill="#5F01D1"/>
</g>
<defs>
<clipPath id="clip0_2231_534">
<rect width="32" height="28.4484" fill="white" transform="translate(32 34)"/>
</clipPath>
</defs>
</svg>
